<svg width="67" height="102" viewBox="0 0 67 102" fill="none" xmlns="http://www.w3.org/2000/svg">
<path d="M5.74023 97H3.36719V86.4336H5.74023V97ZM3.2207 83.6895C3.2207 83.3249 3.33464 83.0221 3.5625 82.7812C3.79688 82.5404 4.12891 82.4199 4.55859 82.4199C4.98828 82.4199 5.32031 82.5404 5.55469 82.7812C5.78906 83.0221 5.90625 83.3249 5.90625 83.6895C5.90625 84.0475 5.78906 84.347 5.55469 84.5879C5.32031 84.8223 4.98828 84.9395 4.55859 84.9395C4.12891 84.9395 3.79688 84.8223 3.5625 84.5879C3.33464 84.347 3.2207 84.0475 3.2207 83.6895ZM11.0332 91.7168V97H8.5625V82.7812H14.002C15.5905 82.7812 16.8503 83.1947 17.7812 84.0215C18.7188 84.8483 19.1875 85.9421 19.1875 87.3027C19.1875 88.696 18.7285 89.7799 17.8105 90.5547C16.8991 91.3294 15.6198 91.7168 13.9727 91.7168H11.0332ZM11.0332 89.7344H14.002C14.8809 89.7344 15.5514 89.5293 16.0137 89.1191C16.4759 88.7025 16.707 88.1035 16.707 87.3223C16.707 86.554 16.4727 85.9421 16.0039 85.4863C15.5352 85.0241 14.8906 84.7865 14.0703 84.7734H11.0332V89.7344ZM23.4648 87.5859C24.2396 86.6875 25.2194 86.2383 26.4043 86.2383C28.6569 86.2383 29.7995 87.5241 29.832 90.0957V97H27.459V90.1836C27.459 89.4544 27.2995 88.9401 26.9805 88.6406C26.668 88.3346 26.2057 88.1816 25.5938 88.1816C24.6432 88.1816 23.9336 88.6048 23.4648 89.4512V97H21.0918V82H23.4648V87.5859ZM31.7949 91.6191C31.7949 90.584 32 89.653 32.4102 88.8262C32.8203 87.9928 33.3965 87.3548 34.1387 86.9121C34.8809 86.4629 35.7337 86.2383 36.6973 86.2383C38.123 86.2383 39.2786 86.6973 40.1641 87.6152C41.056 88.5332 41.5378 89.7507 41.6094 91.2676L41.6191 91.8242C41.6191 92.8659 41.4173 93.7969 41.0137 94.6172C40.6165 95.4375 40.0436 96.0723 39.2949 96.5215C38.5527 96.9707 37.6934 97.1953 36.7168 97.1953C35.2259 97.1953 34.0312 96.7005 33.1328 95.7109C32.2409 94.7148 31.7949 93.39 31.7949 91.7363V91.6191ZM34.168 91.8242C34.168 92.9115 34.3926 93.7643 34.8418 94.3828C35.291 94.9948 35.916 95.3008 36.7168 95.3008C37.5176 95.3008 38.1393 94.9883 38.582 94.3633C39.0312 93.7383 39.2559 92.8236 39.2559 91.6191C39.2559 90.5514 39.0247 89.7051 38.5625 89.0801C38.1068 88.4551 37.485 88.1426 36.6973 88.1426C35.9225 88.1426 35.3073 88.4518 34.8516 89.0703C34.3958 89.6823 34.168 90.6003 34.168 91.8242ZM45.8281 86.4336L45.8965 87.6543C46.6777 86.7103 47.7031 86.2383 48.9727 86.2383C51.1732 86.2383 52.293 87.498 52.332 90.0176V97H49.959V90.1543C49.959 89.4837 49.8125 88.9889 49.5195 88.6699C49.2331 88.3444 48.7611 88.1816 48.1035 88.1816C47.1465 88.1816 46.4336 88.6146 45.9648 89.4805V97H43.5918V86.4336H45.8281ZM59.4121 97.1953C57.9082 97.1953 56.6875 96.7233 55.75 95.7793C54.819 94.8288 54.3535 93.5658 54.3535 91.9902V91.6973C54.3535 90.6426 54.5553 89.7018 54.959 88.875C55.3691 88.0417 55.9421 87.3939 56.6777 86.9316C57.4134 86.4694 58.2337 86.2383 59.1387 86.2383C60.5775 86.2383 61.6875 86.6973 62.4688 87.6152C63.2565 88.5332 63.6504 89.832 63.6504 91.5117V92.4688H56.7461C56.8177 93.3411 57.1074 94.0312 57.6152 94.5391C58.1296 95.0469 58.7741 95.3008 59.5488 95.3008C60.6361 95.3008 61.5215 94.8613 62.2051 93.9824L63.4844 95.2031C63.0612 95.8346 62.4948 96.3262 61.7852 96.6777C61.082 97.0228 60.291 97.1953 59.4121 97.1953ZM59.1289 88.1426C58.4779 88.1426 57.9505 88.3704 57.5469 88.8262C57.1497 89.2819 56.8958 89.9167 56.7852 90.7305H61.3066V90.5547C61.2546 89.7604 61.043 89.1615 60.6719 88.7578C60.3008 88.3477 59.7865 88.1426 59.1289 88.1426Z" fill="white"/>
<path d="M49.0574 16.5088H49.0842C49.2182 16.5088 49.3254 16.549 49.4058 16.616C49.4728 16.683 49.513 16.7902 49.513 16.9376V23.2892C49.513 23.4098 49.4728 23.5036 49.4058 23.5706C49.3388 23.6376 49.2316 23.6778 49.0842 23.6778H49.0574V60.1928C49.0574 61.5328 48.5884 62.6718 47.6504 63.6098C46.7124 64.5478 45.5734 65.0168 44.2334 65.0168H22.6594C21.3328 65.0168 20.2072 64.5478 19.2692 63.6098C18.3312 62.6718 17.8622 61.5328 17.8622 60.1928V25.2724C17.755 25.2724 17.6746 25.2456 17.6076 25.1786C17.5406 25.125 17.5004 25.0312 17.5004 24.9106V21.1988C17.5004 21.105 17.5406 21.0112 17.6076 20.9308C17.6746 20.8504 17.7684 20.8102 17.8622 20.8102V19.43H17.8354C17.7282 19.43 17.6478 19.3898 17.5808 19.3094C17.5138 19.229 17.4736 19.1486 17.4736 19.0682V15.4502C17.4736 15.3296 17.5138 15.2358 17.5808 15.1554C17.6478 15.075 17.7416 15.0348 17.8354 15.0348H17.8622V12.9176H17.822C17.7684 12.9176 17.7148 12.9042 17.688 12.8774C17.6612 12.8506 17.6478 12.797 17.6478 12.7166V10.787C17.6478 10.7066 17.6612 10.653 17.688 10.6128C17.7148 10.5726 17.7684 10.5592 17.822 10.5592H17.8756V6.80715C17.8756 5.46715 18.3446 4.32815 19.2826 3.39015C20.2206 2.45215 21.3462 1.98315 22.6728 1.98315H44.2468C45.5868 1.98315 46.7258 2.45215 47.6638 3.39015C48.6018 4.32815 49.0708 5.46715 49.0708 6.80715V16.5088H49.0574ZM41.2586 4.42195C41.2586 4.83735 41.0978 5.19915 40.7628 5.49395C40.4278 5.78875 40.0392 5.93615 39.597 5.93615H27.4298C26.9474 5.93615 26.5454 5.78875 26.2238 5.49395C25.9022 5.19915 25.7414 4.85075 25.7414 4.42195V3.84575H22.6996C21.8822 3.84575 21.172 4.14055 20.5958 4.71675C20.0196 5.29295 19.7248 6.00315 19.7248 6.82055V60.2062C19.7248 61.0236 20.0196 61.7338 20.5958 62.3368C21.172 62.9264 21.8822 63.2212 22.6996 63.2212H44.1798C44.9972 63.2212 45.7074 62.9264 46.2836 62.3368C46.8598 61.7472 47.1546 61.037 47.1546 60.2062V6.83395C47.1546 6.01655 46.8598 5.30635 46.2836 4.73015C45.7074 4.15395 44.9972 3.85915 44.1798 3.85915H41.2586V4.42195V4.42195ZM35.242 4.71675C35.2956 4.68995 35.3224 4.62295 35.3224 4.51575C35.3224 4.47555 35.2956 4.43535 35.242 4.39515C35.1884 4.35495 35.1482 4.34155 35.108 4.34155H31.892C31.8116 4.34155 31.758 4.36835 31.7312 4.39515C31.7044 4.43535 31.691 4.47555 31.691 4.51575C31.691 4.62295 31.7044 4.67655 31.7312 4.71675C31.758 4.74355 31.8116 4.75695 31.892 4.75695H35.108C35.1482 4.75695 35.2018 4.74355 35.242 4.71675ZM36.4346 4.23435C36.3542 4.32815 36.314 4.42195 36.314 4.51575C36.314 4.66315 36.3542 4.77035 36.4346 4.85075C36.515 4.93115 36.6222 4.97135 36.7696 4.97135C36.8634 4.97135 36.9706 4.93115 37.0644 4.85075C37.1582 4.77035 37.2118 4.66315 37.2118 4.51575C37.2118 4.42195 37.1582 4.31475 37.0644 4.23435C36.9572 4.14055 36.8634 4.10035 36.7696 4.10035C36.6222 4.10035 36.515 4.14055 36.4346 4.23435Z" fill="white"/>
</svg>
