<svg width="44" height="97" viewBox="0 0 44 97" fill="none" xmlns="http://www.w3.org/2000/svg">
<path d="M6.74023 92H4.36719V81.4336H6.74023V92ZM4.2207 78.6895C4.2207 78.3249 4.33464 78.0221 4.5625 77.7812C4.79688 77.5404 5.12891 77.4199 5.55859 77.4199C5.98828 77.4199 6.32031 77.5404 6.55469 77.7812C6.78906 78.0221 6.90625 78.3249 6.90625 78.6895C6.90625 79.0475 6.78906 79.347 6.55469 79.5879C6.32031 79.8223 5.98828 79.9395 5.55859 79.9395C5.12891 79.9395 4.79688 79.8223 4.5625 79.5879C4.33464 79.347 4.2207 79.0475 4.2207 78.6895ZM12.0332 86.7168V92H9.5625V77.7812H15.002C16.5905 77.7812 17.8503 78.1947 18.7812 79.0215C19.7188 79.8483 20.1875 80.9421 20.1875 82.3027C20.1875 83.696 19.7285 84.7799 18.8105 85.5547C17.8991 86.3294 16.6198 86.7168 14.9727 86.7168H12.0332ZM12.0332 84.7344H15.002C15.8809 84.7344 16.5514 84.5293 17.0137 84.1191C17.4759 83.7025 17.707 83.1035 17.707 82.3223C17.707 81.554 17.4727 80.9421 17.0039 80.4863C16.5352 80.0241 15.8906 79.7865 15.0703 79.7734H12.0332V84.7344ZM28.3223 92C28.2181 91.7982 28.127 91.4694 28.0488 91.0137C27.2936 91.8014 26.3691 92.1953 25.2754 92.1953C24.2142 92.1953 23.3483 91.8926 22.6777 91.2871C22.0072 90.6816 21.6719 89.9329 21.6719 89.041C21.6719 87.9147 22.0885 87.0521 22.9219 86.4531C23.7617 85.8477 24.9596 85.5449 26.5156 85.5449H27.9707V84.8516C27.9707 84.3047 27.8177 83.8685 27.5117 83.543C27.2057 83.2109 26.7402 83.0449 26.1152 83.0449C25.5749 83.0449 25.1322 83.1816 24.7871 83.4551C24.4421 83.722 24.2695 84.0638 24.2695 84.4805H21.8965C21.8965 83.901 22.0885 83.3607 22.4727 82.8594C22.8568 82.3516 23.3776 81.9544 24.0352 81.668C24.6992 81.3815 25.4382 81.2383 26.252 81.2383C27.4889 81.2383 28.4753 81.5508 29.2109 82.1758C29.9466 82.7943 30.3242 83.6667 30.3438 84.793V89.5586C30.3438 90.5091 30.4772 91.2676 30.7441 91.834V92H28.3223ZM25.7148 90.291C26.1836 90.291 26.623 90.1771 27.0332 89.9492C27.4499 89.7214 27.7624 89.4154 27.9707 89.0312V87.0391H26.6914C25.8125 87.0391 25.1517 87.1921 24.709 87.498C24.2663 87.804 24.0449 88.237 24.0449 88.7969C24.0449 89.2526 24.1947 89.6172 24.4941 89.8906C24.8001 90.1576 25.207 90.291 25.7148 90.291ZM32.3848 86.6387C32.3848 85.0111 32.7624 83.7057 33.5176 82.7227C34.2728 81.7331 35.2852 81.2383 36.5547 81.2383C37.6745 81.2383 38.5794 81.6289 39.2695 82.4102V77H41.6426V92H39.4941L39.377 90.9062C38.6673 91.7656 37.7201 92.1953 36.5352 92.1953C35.2982 92.1953 34.2956 91.6973 33.5273 90.7012C32.7656 89.7051 32.3848 88.3509 32.3848 86.6387ZM34.7578 86.8438C34.7578 87.918 34.9629 88.7578 35.373 89.3633C35.7897 89.9622 36.3789 90.2617 37.1406 90.2617C38.1107 90.2617 38.8203 89.8288 39.2695 88.9629V84.4512C38.8333 83.6048 38.1302 83.1816 37.1602 83.1816C36.3919 83.1816 35.7995 83.4876 35.3828 84.0996C34.9661 84.7051 34.7578 85.6198 34.7578 86.8438Z" fill="white"/>
<path d="M41.3359 55.793H2.66406V4.3125H41.3359V55.793ZM43.6328 1.69922C43.6328 0.703125 42.8359 0 41.9336 0H2.06641C1.07031 0 0.367188 0.796875 0.367188 1.69922V58.2891C0.367188 59.2852 1.16406 59.9883 2.06641 59.9883H41.9336C42.9297 59.9883 43.6328 59.1914 43.6328 58.2891V1.69922ZM22 1.60547C22.3047 1.60547 22.5977 1.91016 22.5977 2.20312C22.5977 2.50781 22.293 2.80078 22 2.80078C21.6953 2.80078 21.4023 2.49609 21.4023 2.20312C21.4023 1.80469 21.6953 1.60547 22 1.60547ZM22 57.4922C21.6016 57.4922 21.4023 57.7969 21.4023 58.0898C21.4023 58.4883 21.707 58.6875 22 58.6875C22.3984 58.6875 22.5977 58.3828 22.5977 58.0898C22.7031 57.6914 22.3984 57.4922 22 57.4922ZM22 59.2031C21.4023 59.2031 20.8984 58.6992 20.8984 58.1016C20.8984 57.5039 21.4023 57 22 57C22.5977 57 23.1016 57.5039 23.1016 58.1016C23.1016 58.6992 22.5977 59.2031 22 59.2031Z" fill="white"/>
</svg>
