<svg width="65" height="101" viewBox="0 0 65 101" fill="none" xmlns="http://www.w3.org/2000/svg">
<path d="M16.5977 92.4844L18.7852 81.7812H21.2363L17.9551 96H15.5918L12.8867 85.6191L10.123 96H7.75L4.46875 81.7812H6.91992L9.12695 92.4648L11.8418 81.7812H13.9121L16.5977 92.4844ZM28.7949 96C28.6908 95.7982 28.5996 95.4694 28.5215 95.0137C27.7663 95.8014 26.8418 96.1953 25.748 96.1953C24.6868 96.1953 23.821 95.8926 23.1504 95.2871C22.4798 94.6816 22.1445 93.9329 22.1445 93.041C22.1445 91.9147 22.5612 91.0521 23.3945 90.4531C24.2344 89.8477 25.4323 89.5449 26.9883 89.5449H28.4434V88.8516C28.4434 88.3047 28.2904 87.8685 27.9844 87.543C27.6784 87.2109 27.2129 87.0449 26.5879 87.0449C26.0475 87.0449 25.6048 87.1816 25.2598 87.4551C24.9147 87.722 24.7422 88.0638 24.7422 88.4805H22.3691C22.3691 87.901 22.5612 87.3607 22.9453 86.8594C23.3294 86.3516 23.8503 85.9544 24.5078 85.668C25.1719 85.3815 25.9108 85.2383 26.7246 85.2383C27.9616 85.2383 28.9479 85.5508 29.6836 86.1758C30.4193 86.7943 30.7969 87.6667 30.8164 88.793V93.5586C30.8164 94.5091 30.9499 95.2676 31.2168 95.834V96H28.7949ZM26.1875 94.291C26.6562 94.291 27.0957 94.1771 27.5059 93.9492C27.9225 93.7214 28.235 93.4154 28.4434 93.0312V91.0391H27.1641C26.2852 91.0391 25.6243 91.1921 25.1816 91.498C24.7389 91.804 24.5176 92.237 24.5176 92.7969C24.5176 93.2526 24.6673 93.6172 24.9668 93.8906C25.2728 94.1576 25.6797 94.291 26.1875 94.291ZM36.2754 82.8652V85.4336H38.1406V87.1914H36.2754V93.0898C36.2754 93.4935 36.3535 93.7865 36.5098 93.9688C36.6725 94.1445 36.959 94.2324 37.3691 94.2324C37.6426 94.2324 37.9193 94.1999 38.1992 94.1348V95.9707C37.6589 96.1204 37.138 96.1953 36.6367 96.1953C34.8138 96.1953 33.9023 95.1895 33.9023 93.1777V87.1914H32.1641V85.4336H33.9023V82.8652H36.2754ZM44.3027 94.3008C44.8952 94.3008 45.3867 94.1283 45.7773 93.7832C46.168 93.4382 46.3763 93.0117 46.4023 92.5039H48.6387C48.6126 93.1615 48.4076 93.7767 48.0234 94.3496C47.6393 94.916 47.1185 95.3652 46.4609 95.6973C45.8034 96.0293 45.0938 96.1953 44.332 96.1953C42.8542 96.1953 41.6823 95.7168 40.8164 94.7598C39.9505 93.8027 39.5176 92.4811 39.5176 90.7949V90.5508C39.5176 88.9427 39.9473 87.6569 40.8066 86.6934C41.666 85.7233 42.8379 85.2383 44.3223 85.2383C45.5788 85.2383 46.6009 85.6061 47.3887 86.3418C48.1829 87.071 48.5996 88.0312 48.6387 89.2227H46.4023C46.3763 88.6172 46.168 88.1191 45.7773 87.7285C45.3932 87.3379 44.9017 87.1426 44.3027 87.1426C43.5345 87.1426 42.9421 87.4225 42.5254 87.9824C42.1087 88.5358 41.8971 89.3789 41.8906 90.5117V90.8926C41.8906 92.0384 42.0957 92.8945 42.5059 93.4609C42.9225 94.0208 43.5215 94.3008 44.3027 94.3008ZM52.7695 86.5859C53.5443 85.6875 54.5241 85.2383 55.709 85.2383C57.9616 85.2383 59.1042 86.5241 59.1367 89.0957V96H56.7637V89.1836C56.7637 88.4544 56.6042 87.9401 56.2852 87.6406C55.9727 87.3346 55.5104 87.1816 54.8984 87.1816C53.9479 87.1816 53.2383 87.6048 52.7695 88.4512V96H50.3965V81H52.7695V86.5859Z" fill="white"/>
<path d="M21.9239 0.936066C20.854 1.50872 20.7792 1.74467 20.1325 5.93782C19.8211 7.99052 19.5728 9.76957 19.5728 9.88202C19.5728 10.0062 19.6846 10.2181 19.8218 10.3546C20.0707 10.6035 20.2326 10.6035 31.4919 10.6035C42.8136 10.6035 42.913 10.6035 43.1867 10.3546C43.3362 10.2051 43.4603 9.99382 43.4603 9.88202C43.4603 9.75787 43.2114 8.01587 42.9007 6.00022C42.5399 3.64852 42.2539 2.19316 42.1168 1.90717C41.9926 1.65822 41.6442 1.28512 41.3576 1.08622L40.8226 0.713117L31.6531 0.676065L22.4835 0.651367L21.9239 0.936066Z" fill="white"/>
<path d="M18.59 12.7927C16.4873 13.3523 14.8454 15.0319 14.2851 17.1594C13.9991 18.2416 14.0114 46.7701 14.2851 47.8647C14.8447 50.0045 16.512 51.6594 18.6648 52.2191C19.7347 52.4927 43.2985 52.4927 44.3684 52.2191C46.5205 51.6594 48.1878 50.0045 48.7481 47.8647C48.8599 47.4045 48.9346 46.5836 48.9346 45.6625V44.1942H49.532C49.8557 44.1942 50.1911 44.1318 50.2782 44.0447C50.4894 43.8334 50.4894 34.6015 50.2782 34.3902C50.1911 34.3031 49.855 34.2407 49.532 34.2407H48.9346V31.3794V28.5181H49.6191C50.1911 28.5181 50.3653 28.4681 50.6142 28.2068L50.9249 27.9084V25.0718C50.9126 23.0438 50.8749 22.1852 50.7631 22.0363C50.5141 21.7126 50.104 21.5514 49.5066 21.5514H48.9346V19.71C48.9346 18.4659 48.8722 17.6319 48.7481 17.1347C48.1884 14.9949 46.5212 13.34 44.3684 12.7803C43.3232 12.5067 19.6099 12.519 18.59 12.7927ZM35.8462 21.3525C35.672 23.4553 34.0301 25.2837 32.0268 25.5951L31.4919 25.6822L31.5419 24.8983C31.6537 23.0568 33.085 21.3148 34.9382 20.7305C35.8833 20.4321 35.908 20.4568 35.8462 21.3525ZM37.0526 26.0553C37.8242 26.2542 38.4709 26.6273 39.1924 27.3117L39.8639 27.9461L39.2542 28.4687C36.7296 30.6709 36.9785 34.4533 39.7404 36.257C40.2877 36.6054 40.3501 36.6925 40.2877 36.9785C40.0511 37.9613 38.7075 40.2136 37.6877 41.3082C36.6301 42.4528 35.4231 42.6771 33.8806 42.0173C33.3457 41.7807 32.7737 41.6566 32.1763 41.6065C31.3924 41.5565 31.1435 41.6065 29.9865 42.005C29.265 42.2539 28.5058 42.4528 28.2822 42.4528C26.6026 42.4528 24.1391 39.2925 23.1316 35.8462C21.7497 31.057 23.2427 27.1252 26.8385 26.093C27.846 25.7946 28.8295 25.8941 30.1477 26.4167C30.7327 26.6409 31.4041 26.8275 31.6407 26.8275C31.8773 26.8275 32.5364 26.6533 33.0967 26.429C34.6892 25.8063 35.6967 25.7192 37.0526 26.0553Z" fill="white"/>
<path d="M19.8218 54.6455C19.6846 54.782 19.5728 55.0063 19.5728 55.1311C19.5728 55.2559 19.8218 57.0343 20.1325 59.0746C20.7792 63.2548 20.854 63.5037 21.9239 64.0634L22.4835 64.3494L31.6531 64.3247L40.8226 64.2876L41.3576 63.9145C41.6436 63.7033 41.9796 63.3425 42.1038 63.1059C42.3027 62.7328 43.4597 55.8896 43.4597 55.1187C43.4597 55.0069 43.3349 54.795 43.186 54.6462C42.9124 54.3972 42.8129 54.3972 31.4912 54.3972C20.2319 54.3966 20.0701 54.3966 19.8218 54.6455Z" fill="white"/>
</svg>
