<svg width="72" height="98" viewBox="0 0 72 98" fill="none" xmlns="http://www.w3.org/2000/svg">
<path d="M9.4043 89.6895H3.89648L2.74414 93H0.175781L5.54688 78.7812H7.76367L13.1445 93H10.5664L9.4043 89.6895ZM4.58984 87.6973H8.71094L6.65039 81.7988L4.58984 87.6973ZM17.0605 93H14.6875V82.4336H17.0605V93ZM14.541 79.6895C14.541 79.3249 14.6549 79.0221 14.8828 78.7812C15.1172 78.5404 15.4492 78.4199 15.8789 78.4199C16.3086 78.4199 16.6406 78.5404 16.875 78.7812C17.1094 79.0221 17.2266 79.3249 17.2266 79.6895C17.2266 80.0475 17.1094 80.347 16.875 80.5879C16.6406 80.8223 16.3086 80.9395 15.8789 80.9395C15.4492 80.9395 15.1172 80.8223 14.8828 80.5879C14.6549 80.347 14.541 80.0475 14.541 79.6895ZM25.1855 84.6016C24.873 84.5495 24.5508 84.5234 24.2188 84.5234C23.1315 84.5234 22.3991 84.9401 22.0215 85.7734V93H19.6484V82.4336H21.9141L21.9727 83.6152C22.5456 82.6973 23.3398 82.2383 24.3555 82.2383C24.694 82.2383 24.974 82.2839 25.1953 82.375L25.1855 84.6016ZM29.3848 87.7168V93H26.9141V78.7812H32.3535C33.9421 78.7812 35.2018 79.1947 36.1328 80.0215C37.0703 80.8483 37.5391 81.9421 37.5391 83.3027C37.5391 84.696 37.0801 85.7799 36.1621 86.5547C35.2507 87.3294 33.9714 87.7168 32.3242 87.7168H29.3848ZM29.3848 85.7344H32.3535C33.2324 85.7344 33.903 85.5293 34.3652 85.1191C34.8275 84.7025 35.0586 84.1035 35.0586 83.3223C35.0586 82.554 34.8242 81.9421 34.3555 81.4863C33.8867 81.0241 33.2422 80.7865 32.4219 80.7734H29.3848V85.7344ZM38.8965 87.6191C38.8965 86.584 39.1016 85.653 39.5117 84.8262C39.9219 83.9928 40.498 83.3548 41.2402 82.9121C41.9824 82.4629 42.8353 82.2383 43.7988 82.2383C45.2246 82.2383 46.3802 82.6973 47.2656 83.6152C48.1576 84.5332 48.6393 85.7507 48.7109 87.2676L48.7207 87.8242C48.7207 88.8659 48.5189 89.7969 48.1152 90.6172C47.7181 91.4375 47.1452 92.0723 46.3965 92.5215C45.6543 92.9707 44.7949 93.1953 43.8184 93.1953C42.3275 93.1953 41.1328 92.7005 40.2344 91.7109C39.3424 90.7148 38.8965 89.39 38.8965 87.7363V87.6191ZM41.2695 87.8242C41.2695 88.9115 41.4941 89.7643 41.9434 90.3828C42.3926 90.9948 43.0176 91.3008 43.8184 91.3008C44.6191 91.3008 45.2409 90.9883 45.6836 90.3633C46.1328 89.7383 46.3574 88.8236 46.3574 87.6191C46.3574 86.5514 46.1263 85.7051 45.6641 85.0801C45.2083 84.4551 44.5866 84.1426 43.7988 84.1426C43.0241 84.1426 42.4089 84.4518 41.9531 85.0703C41.4974 85.6823 41.2695 86.6003 41.2695 87.8242ZM50.2832 87.6387C50.2832 86.0111 50.6608 84.7057 51.416 83.7227C52.1712 82.7331 53.1836 82.2383 54.4531 82.2383C55.5729 82.2383 56.4779 82.6289 57.168 83.4102V78H59.541V93H57.3926L57.2754 91.9062C56.5658 92.7656 55.6185 93.1953 54.4336 93.1953C53.1966 93.1953 52.194 92.6973 51.4258 91.7012C50.6641 90.7051 50.2832 89.3509 50.2832 87.6387ZM52.6562 87.8438C52.6562 88.918 52.8613 89.7578 53.2715 90.3633C53.6882 90.9622 54.2773 91.2617 55.0391 91.2617C56.0091 91.2617 56.7188 90.8288 57.168 89.9629V85.4512C56.7318 84.6048 56.0286 84.1816 55.0586 84.1816C54.2904 84.1816 53.6979 84.4876 53.2812 85.0996C52.8646 85.7051 52.6562 86.6198 52.6562 87.8438ZM67.9395 90.1289C67.9395 89.7057 67.7637 89.3835 67.4121 89.1621C67.0671 88.9408 66.4909 88.7454 65.6836 88.5762C64.8763 88.4069 64.2025 88.1921 63.6621 87.9316C62.4772 87.3587 61.8848 86.5286 61.8848 85.4414C61.8848 84.5299 62.2689 83.7682 63.0371 83.1562C63.8053 82.5443 64.7819 82.2383 65.9668 82.2383C67.2298 82.2383 68.2487 82.5508 69.0234 83.1758C69.8047 83.8008 70.1953 84.6113 70.1953 85.6074H67.8223C67.8223 85.1517 67.653 84.7741 67.3145 84.4746C66.9759 84.1686 66.5267 84.0156 65.9668 84.0156C65.446 84.0156 65.0195 84.1361 64.6875 84.377C64.362 84.6178 64.1992 84.9401 64.1992 85.3438C64.1992 85.7083 64.3522 85.9915 64.6582 86.1934C64.9642 86.3952 65.5827 86.6003 66.5137 86.8086C67.4447 87.0104 68.1738 87.2546 68.7012 87.541C69.235 87.821 69.6289 88.1595 69.8828 88.5566C70.1432 88.9538 70.2734 89.4355 70.2734 90.002C70.2734 90.9525 69.8796 91.724 69.0918 92.3164C68.304 92.9023 67.2721 93.1953 65.9961 93.1953C65.1302 93.1953 64.3587 93.0391 63.6816 92.7266C63.0046 92.4141 62.4772 91.9844 62.0996 91.4375C61.722 90.8906 61.5332 90.3014 61.5332 89.6699H63.8379C63.8704 90.2298 64.082 90.6628 64.4727 90.9688C64.8633 91.2682 65.3809 91.418 66.0254 91.418C66.6504 91.418 67.1257 91.3008 67.4512 91.0664C67.7767 90.8255 67.9395 90.513 67.9395 90.1289Z" fill="white"/>
<path d="M38.5 56.25C38.5 58.3175 40.1825 60 42.25 60H44.75C46.8175 60 48.5 58.3175 48.5 56.25V55H38.5V56.25Z" fill="white"/>
<path d="M65.74 5.8125C62.925 2.1725 58.35 0 53.5 0C45.2275 0 38.5 6.17 38.5 13.75V52.5H48.5V25C48.5 22.245 50.7425 20 53.5 20C54.19 20 54.75 20.56 54.75 21.25C54.75 21.94 54.19 22.5 53.5 22.5C52.1225 22.5 51 23.62 51 25V27.305C51.82 27.4325 52.655 27.5 53.5 27.5C58.35 27.5 62.925 25.3275 65.74 21.6875C65.9075 21.4675 66 21.1975 66 20.9225V6.5775C66 6.3 65.9075 6.0325 65.74 5.8125ZM50.26 8.1725C48.585 8.9125 47.27 10.1875 46.5625 11.7625C46.355 12.225 45.8975 12.5 45.42 12.5C45.25 12.5 45.075 12.465 44.9075 12.39C44.2775 12.1075 43.9975 11.3675 44.28 10.7375C45.2425 8.6 47.0075 6.8775 49.25 5.89C49.88 5.61 50.62 5.9 50.8975 6.5275C51.1775 7.155 50.89 7.8925 50.26 8.1725ZM57.875 15C56.84 15 56 14.1575 56 13.125C56 12.0925 56.84 11.25 57.875 11.25C58.91 11.25 59.75 12.0925 59.75 13.125C59.75 14.1575 58.91 15 57.875 15Z" fill="white"/>
<path d="M23.5 56.25C23.5 58.3175 25.1825 60 27.25 60H29.75C31.8175 60 33.5 58.3175 33.5 56.25V55H23.5V56.25Z" fill="white"/>
<path d="M18.5 0C13.65 0 9.075 2.1725 6.2625 5.8125C6.0925 6.0325 6 6.3 6 6.5775V20.9225C6 21.1975 6.0925 21.4675 6.2625 21.6875C9.075 25.3275 13.65 27.5 18.5 27.5C19.345 27.5 20.18 27.4325 21 27.305V25C21 23.62 19.8775 22.5 18.5 22.5C17.81 22.5 17.25 21.94 17.25 21.25C17.25 20.56 17.81 20 18.5 20C21.2575 20 23.5 22.245 23.5 25V52.5H33.5V13.75C33.5 6.17 26.7725 0 18.5 0ZM14.125 15C13.09 15 12.25 14.1575 12.25 13.125C12.25 12.0925 13.09 11.25 14.125 11.25C15.16 11.25 16 12.0925 16 13.125C16 14.1575 15.16 15 14.125 15ZM27.09 12.3875C26.925 12.4625 26.75 12.4975 26.58 12.4975C26.1025 12.4975 25.6475 12.225 25.4375 11.76C24.73 10.185 23.415 8.91 21.74 8.17C21.1075 7.8925 20.8225 7.155 21.1025 6.5225C21.3775 5.895 22.1175 5.605 22.75 5.8875C24.9925 6.875 26.7575 8.595 27.72 10.735C28.0025 11.365 27.7225 12.105 27.09 12.3875Z" fill="white"/>
</svg>
