<svg width="104" height="93" viewBox="0 0 104 93" fill="none" xmlns="http://www.w3.org/2000/svg">
<path d="M37.6484 77.7812L41.75 88.6797L45.8418 77.7812H49.0352V92H46.5742V87.3125L46.8184 81.043L42.6191 92H40.8516L36.6621 81.0527L36.9062 87.3125V92H34.4453V77.7812H37.6484ZM58.0488 92C57.9447 91.7982 57.8535 91.4694 57.7754 91.0137C57.0202 91.8014 56.0957 92.1953 55.002 92.1953C53.9408 92.1953 53.0749 91.8926 52.4043 91.2871C51.7337 90.6816 51.3984 89.9329 51.3984 89.041C51.3984 87.9147 51.8151 87.0521 52.6484 86.4531C53.4883 85.8477 54.6862 85.5449 56.2422 85.5449H57.6973V84.8516C57.6973 84.3047 57.5443 83.8685 57.2383 83.543C56.9323 83.2109 56.4668 83.0449 55.8418 83.0449C55.3014 83.0449 54.8587 83.1816 54.5137 83.4551C54.1686 83.722 53.9961 84.0638 53.9961 84.4805H51.623C51.623 83.901 51.8151 83.3607 52.1992 82.8594C52.5833 82.3516 53.1042 81.9544 53.7617 81.668C54.4258 81.3815 55.1647 81.2383 55.9785 81.2383C57.2155 81.2383 58.2018 81.5508 58.9375 82.1758C59.6732 82.7943 60.0508 83.6667 60.0703 84.793V89.5586C60.0703 90.5091 60.2038 91.2676 60.4707 91.834V92H58.0488ZM55.4414 90.291C55.9102 90.291 56.3496 90.1771 56.7598 89.9492C57.1764 89.7214 57.4889 89.4154 57.6973 89.0312V87.0391H56.418C55.5391 87.0391 54.8783 87.1921 54.4355 87.498C53.9928 87.804 53.7715 88.237 53.7715 88.7969C53.7715 89.2526 53.9212 89.6172 54.2207 89.8906C54.5267 90.1576 54.9336 90.291 55.4414 90.291ZM66.8965 90.3008C67.4889 90.3008 67.9805 90.1283 68.3711 89.7832C68.7617 89.4382 68.9701 89.0117 68.9961 88.5039H71.2324C71.2064 89.1615 71.0013 89.7767 70.6172 90.3496C70.2331 90.916 69.7122 91.3652 69.0547 91.6973C68.3971 92.0293 67.6875 92.1953 66.9258 92.1953C65.4479 92.1953 64.276 91.7168 63.4102 90.7598C62.5443 89.8027 62.1113 88.4811 62.1113 86.7949V86.5508C62.1113 84.9427 62.541 83.6569 63.4004 82.6934C64.2598 81.7233 65.4316 81.2383 66.916 81.2383C68.1725 81.2383 69.1947 81.6061 69.9824 82.3418C70.7767 83.071 71.1934 84.0312 71.2324 85.2227H68.9961C68.9701 84.6172 68.7617 84.1191 68.3711 83.7285C67.987 83.3379 67.4954 83.1426 66.8965 83.1426C66.1283 83.1426 65.5358 83.4225 65.1191 83.9824C64.7025 84.5358 64.4909 85.3789 64.4844 86.5117V86.8926C64.4844 88.0384 64.6895 88.8945 65.0996 89.4609C65.5163 90.0208 66.1152 90.3008 66.8965 90.3008Z" fill="white"/>
<path d="M95.2238 53.5584V2.7987C95.2238 1.21973 94.021 0.00512695 92.4581 0.00512695H11.6627C10.0996 0.00512695 8.89706 1.21998 8.89706 2.7987V53.68H7.62939e-06V56.9585C1.20281 58.901 7.5749 59.9944 9.97929 59.9944H94.0207C96.5457 59.9944 102.918 58.78 104 56.9585V53.68H95.2238V53.5584V53.5584ZM12.2641 3.64871H91.8572V53.68H12.2641V3.64871Z" fill="white"/>
</svg>
