<svg width="62" height="99" viewBox="0 0 62 99" fill="none" xmlns="http://www.w3.org/2000/svg">
<path d="M8.64844 79.7812L12.75 90.6797L16.8418 79.7812H20.0352V94H17.5742V89.3125L17.8184 83.043L13.6191 94H11.8516L7.66211 83.0527L7.90625 89.3125V94H5.44531V79.7812H8.64844ZM29.1367 92.9648C28.4401 93.7852 27.4505 94.1953 26.168 94.1953C25.0221 94.1953 24.153 93.86 23.5605 93.1895C22.9746 92.5189 22.6816 91.5488 22.6816 90.2793V83.4336H25.0547V90.25C25.0547 91.5911 25.6113 92.2617 26.7246 92.2617C27.877 92.2617 28.6549 91.8483 29.0586 91.0215V83.4336H31.4316V94H29.1953L29.1367 92.9648ZM39.7715 91.1289C39.7715 90.7057 39.5957 90.3835 39.2441 90.1621C38.8991 89.9408 38.3229 89.7454 37.5156 89.5762C36.7083 89.4069 36.0345 89.1921 35.4941 88.9316C34.3092 88.3587 33.7168 87.5286 33.7168 86.4414C33.7168 85.5299 34.1009 84.7682 34.8691 84.1562C35.6374 83.5443 36.6139 83.2383 37.7988 83.2383C39.0618 83.2383 40.0807 83.5508 40.8555 84.1758C41.6367 84.8008 42.0273 85.6113 42.0273 86.6074H39.6543C39.6543 86.1517 39.485 85.7741 39.1465 85.4746C38.8079 85.1686 38.3587 85.0156 37.7988 85.0156C37.278 85.0156 36.8516 85.1361 36.5195 85.377C36.194 85.6178 36.0312 85.9401 36.0312 86.3438C36.0312 86.7083 36.1842 86.9915 36.4902 87.1934C36.7962 87.3952 37.4147 87.6003 38.3457 87.8086C39.2767 88.0104 40.0059 88.2546 40.5332 88.541C41.0671 88.821 41.4609 89.1595 41.7148 89.5566C41.9753 89.9538 42.1055 90.4355 42.1055 91.002C42.1055 91.9525 41.7116 92.724 40.9238 93.3164C40.1361 93.9023 39.1042 94.1953 37.8281 94.1953C36.9622 94.1953 36.1908 94.0391 35.5137 93.7266C34.8366 93.4141 34.3092 92.9844 33.9316 92.4375C33.554 91.8906 33.3652 91.3014 33.3652 90.6699H35.6699C35.7025 91.2298 35.9141 91.6628 36.3047 91.9688C36.6953 92.2682 37.2129 92.418 37.8574 92.418C38.4824 92.418 38.9577 92.3008 39.2832 92.0664C39.6087 91.8255 39.7715 91.513 39.7715 91.1289ZM46.7051 94H44.332V83.4336H46.7051V94ZM44.1855 80.6895C44.1855 80.3249 44.2995 80.0221 44.5273 79.7812C44.7617 79.5404 45.0938 79.4199 45.5234 79.4199C45.9531 79.4199 46.2852 79.5404 46.5195 79.7812C46.7539 80.0221 46.8711 80.3249 46.8711 80.6895C46.8711 81.0475 46.7539 81.347 46.5195 81.5879C46.2852 81.8223 45.9531 81.9395 45.5234 81.9395C45.0938 81.9395 44.7617 81.8223 44.5273 81.5879C44.2995 81.347 44.1855 81.0475 44.1855 80.6895ZM53.6387 92.3008C54.2311 92.3008 54.7227 92.1283 55.1133 91.7832C55.5039 91.4382 55.7122 91.0117 55.7383 90.5039H57.9746C57.9486 91.1615 57.7435 91.7767 57.3594 92.3496C56.9753 92.916 56.4544 93.3652 55.7969 93.6973C55.1393 94.0293 54.4297 94.1953 53.668 94.1953C52.1901 94.1953 51.0182 93.7168 50.1523 92.7598C49.2865 91.8027 48.8535 90.4811 48.8535 88.7949V88.5508C48.8535 86.9427 49.2832 85.6569 50.1426 84.6934C51.002 83.7233 52.1738 83.2383 53.6582 83.2383C54.9147 83.2383 55.9368 83.6061 56.7246 84.3418C57.5189 85.071 57.9355 86.0312 57.9746 87.2227H55.7383C55.7122 86.6172 55.5039 86.1191 55.1133 85.7285C54.7292 85.3379 54.2376 85.1426 53.6387 85.1426C52.8704 85.1426 52.278 85.4225 51.8613 85.9824C51.4447 86.5358 51.2331 87.3789 51.2266 88.5117V88.8926C51.2266 90.0384 51.4316 90.8945 51.8418 91.4609C52.2585 92.0208 52.8574 92.3008 53.6387 92.3008Z" fill="white"/>
<g clip-path="url(#clip0_11_232)">
<path d="M61.9899 15.8236C61.9899 13.9171 61.8291 12.0183 61.3738 10.1622C60.5562 6.78125 58.6284 4.19856 55.7434 2.30175C54.2593 1.333 52.626 0.738188 50.89 0.424313C49.557 0.182125 48.2066 0.0716875 46.8542 0.0406875C46.7534 0.031 46.643 0.0096875 46.5306 0H15.4706C15.0772 0.031 14.6839 0.050375 14.2906 0.06975C12.3628 0.180188 10.4466 0.381688 8.62925 1.10825C5.17856 2.47031 2.685 4.8515 1.23187 8.28281C0.728121 9.44338 0.474309 10.6737 0.294121 11.9253C0.142996 12.9348 0.0616211 13.9539 0.0325586 14.973C0.0325586 15.0544 0.0131836 15.1338 0.0131836 15.2152V46.7906C0.0325586 47.1549 0.0538711 47.5172 0.0732461 47.8814C0.204996 49.9914 0.476246 52.08 1.36556 54.0175C3.0415 57.6813 5.85668 60.0916 9.722 61.2521C10.8012 61.5854 11.9327 61.7365 13.0622 61.8373C14.496 61.9787 15.9278 61.9981 17.3616 61.9981H45.8583C47.2107 61.9981 48.5631 61.907 49.9154 61.7365C52.0447 61.4633 54.0423 60.8375 55.85 59.6479C58.02 58.2141 59.6552 56.3173 60.7034 53.9458C61.1878 52.855 61.461 51.6964 61.6625 50.5242C61.9551 48.7785 62.0151 47.0115 62.0151 45.2464C62.0054 35.4369 62.0151 25.6293 62.0054 15.8197L61.9899 15.8236ZM45.3991 26.1253V40.8793C45.3991 41.9585 45.248 43.0183 44.7636 43.9968C44.0177 45.5196 42.8067 46.4787 41.1812 46.9437C40.2822 47.2053 39.3541 47.3467 38.4164 47.3874C35.9635 47.5094 33.8342 45.8432 33.4002 43.4213C33.0262 41.4238 33.9853 39.2228 36.0836 38.1939C36.9109 37.7909 37.8099 37.5488 38.707 37.3666C39.6854 37.1554 40.6639 36.9636 41.6326 36.7408C42.3495 36.58 42.8126 36.146 42.954 35.4078C42.9947 35.247 43.0044 35.0746 43.0044 34.9138C43.0044 30.2211 43.0044 25.5285 43.0044 20.8475C43.0044 20.6867 42.9734 20.5239 42.9346 20.3728C42.8339 19.9795 42.551 19.747 42.148 19.7664C41.7334 19.7858 41.3304 19.8574 40.9274 19.9388C38.9589 20.3224 36.9923 20.7157 35.0335 21.1187L25.4777 23.0466C25.4371 23.0563 25.3867 23.0776 25.346 23.0776C24.6291 23.2791 24.3772 23.6026 24.3462 24.3486C24.3366 24.459 24.3462 24.5714 24.3462 24.6818C24.3366 31.403 24.3462 38.1242 24.3366 44.8434C24.3366 45.9343 24.2145 47.0038 23.7824 48.0113C23.0656 49.6659 21.7946 50.7063 20.0799 51.2004C19.1712 51.4619 18.2431 51.615 17.2937 51.6441C14.8215 51.7351 12.7619 50.0902 12.3396 47.6586C11.9753 45.5603 12.9344 43.2993 15.3156 42.2898C16.2436 41.9062 17.2027 41.695 18.1811 41.4935C18.9174 41.3424 19.6652 41.1912 20.4015 41.0401C21.3896 40.8289 21.905 40.2031 21.9554 39.1937V38.8101C21.9554 31.1608 21.9554 23.5116 21.9554 15.8623C21.9554 15.5388 21.9961 15.2171 22.0658 14.9033C22.2479 14.167 22.773 13.7427 23.4782 13.5703C24.1351 13.3978 24.8112 13.2777 25.4758 13.1363C27.3726 12.7526 29.2597 12.369 31.1566 11.9951L37.0194 10.8035C38.7554 10.4606 40.4798 10.1079 42.2158 9.765C42.7816 9.65456 43.357 9.5325 43.9305 9.49181C44.7268 9.42206 45.2829 9.92581 45.3642 10.7338C45.3836 10.9256 45.3952 11.1174 45.3952 11.3092C45.3952 16.244 45.3952 21.1788 45.3952 26.1136L45.3991 26.1253Z" fill="white"/>
</g>
<defs>
<clipPath id="clip0_11_232">
<rect width="62" height="62" fill="white"/>
</clipPath>
</defs>
</svg>
