<svg width="18" height="33" viewBox="0 0 18 33" fill="none" xmlns="http://www.w3.org/2000/svg">
<path d="M2.28455 0.0435543C2.25085 0.0697761 2.20705 0.0959978 2.1902 0.0992751C2.17335 0.105831 2.24075 0.354937 2.34183 0.649931C2.44292 0.948203 2.66531 1.68241 2.83378 2.28551C3.20443 3.59332 3.39986 4.2128 3.59529 4.70446C4.42083 6.76286 5.64397 7.7134 7.56122 7.78551L8.05654 7.80518L8.06665 7.46429C8.09361 6.61209 8.01274 5.62222 7.85437 4.8454C7.63535 3.77359 7.0996 2.73783 6.48635 2.19046C5.90342 1.6693 5.47212 1.42675 3.88844 0.728596C3.25834 0.44999 2.71585 0.187774 2.53052 0.0730538C2.3789 -0.0187221 2.36879 -0.0187221 2.28455 0.0435543Z" fill="#fff"/>
<path d="M9.06401 5.16332C8.83826 5.62876 8.75065 5.85492 8.66304 6.20563C8.5788 6.54324 8.52152 7.16273 8.54847 7.43478L8.57206 7.6511L8.7776 7.72321C9.01684 7.80516 9.17184 7.81827 9.17184 7.74944C9.17184 7.72649 9.13141 7.61833 9.08086 7.51344C8.99325 7.33317 8.98652 7.29056 8.98652 6.89395C8.98652 6.39574 9.00673 6.3138 9.32347 5.48454C9.44477 5.1666 9.54249 4.90111 9.54249 4.89127C9.54249 4.87816 9.30999 4.77983 9.27293 4.77983C9.25945 4.77983 9.1651 4.95355 9.06401 5.16332Z" fill="#fff"/>
<path d="M8.4474 8.10998C7.99925 8.17554 7.57806 8.30009 7.21752 8.47381C6.93785 8.60492 6.85361 8.66719 6.54362 8.97202C6.03145 9.47351 5.63721 10.0799 5.34407 10.8108C5.19581 11.191 5.09135 11.6007 4.91277 12.548C4.52864 14.5835 4.24223 15.1898 2.64171 17.3728C1.60726 18.7888 1.25683 19.323 0.865968 20.1031C0.572819 20.6898 0.387495 21.1684 0.245975 21.7256C0.0539124 22.4729 0.0336952 22.6925 0.0168476 23.9413L0 25.0918L0.14152 25.5802C0.774991 27.7763 1.86672 29.5724 3.30213 30.7754C4.42756 31.7161 5.79895 32.3749 7.36915 32.7256C8.4137 32.9616 8.59229 32.978 9.8626 32.9944C10.5972 33.0009 11.106 32.9911 11.2104 32.9714C11.3048 32.9518 11.5844 32.9059 11.8338 32.8698C14.1924 32.5126 16.0457 31.5456 17.3295 30.0018C17.5283 29.7658 17.8989 29.2381 17.8989 29.1988C17.8989 29.1857 17.8046 29.1562 17.69 29.1365C17.3396 29.071 16.9656 28.8743 16.6623 28.5957C16.514 28.458 16.3422 28.2745 16.2782 28.1827L16.1636 28.0155L15.894 28.0418C15.2741 28.1008 14.8225 28.0385 14.4148 27.832C13.9599 27.6025 13.5994 27.1437 13.4714 26.6356C13.4073 26.3865 13.3972 25.79 13.4511 25.5769C13.5017 25.3802 13.4949 25.3508 13.3871 25.2885C12.8918 25.0066 12.4201 24.3805 12.3089 23.8627C12.201 23.3645 12.3527 22.7941 12.7065 22.3582C12.8952 22.1255 13.0973 21.9354 13.3096 21.7977C13.404 21.7354 13.4848 21.6732 13.4848 21.6633C13.4848 21.6535 13.468 21.5847 13.4511 21.5125C13.3972 21.2962 13.4073 20.7062 13.4714 20.4571C13.6432 19.7721 14.1486 19.2739 14.8663 19.0838C15.1191 19.0149 15.766 19.0051 16.012 19.0674C16.1838 19.1067 16.1367 19.1395 16.477 18.7298C16.7903 18.3528 17.2452 18.0677 17.6967 17.9693C17.9124 17.9202 17.9292 17.9103 17.8955 17.8546C17.8214 17.7137 17.4238 17.1171 16.9891 16.4813C16.14 15.2423 15.8637 14.7998 15.1359 13.4985C13.8925 11.2795 13.1176 10.1454 12.2213 9.24407C11.5036 8.51642 10.9274 8.21487 10.0311 8.09359C9.68064 8.04443 8.81805 8.05426 8.4474 8.10998Z" fill="#fff"/>
</svg>
